<svg width="27" height="31" viewBox="0 0 27 31" fill="none" xmlns="http://www.w3.org/2000/svg">
<path d="M6.75 1.55C6.75 0.693959 7.35442 0 8.1 0H18.9C19.6456 0 20.25 0.693959 20.25 1.55C20.25 2.40604 19.6456 3.1 18.9 3.1H8.1C7.35442 3.1 6.75 2.40604 6.75 1.55Z" fill="#e74345"/>
<path fill-rule="evenodd" clip-rule="evenodd" d="M1.35 5.68333C0.604416 5.68333 0 6.37729 0 7.23333C0 8.08937 0.604416 8.78333 1.35 8.78333H3.6V25.3167C3.6 28.4555 5.81619 31 8.55 31H18.45C21.1838 31 23.4 28.4555 23.4 25.3167V8.78333H25.65C26.3956 8.78333 27 8.08937 27 7.23333C27 6.37729 26.3956 5.68333 25.65 5.68333H1.35ZM10.8 12.9167C11.5456 12.9167 12.15 13.6106 12.15 14.4667V22.2167C12.15 23.0727 11.5456 23.7667 10.8 23.7667C10.0544 23.7667 9.45 23.0727 9.45 22.2167V14.4667C9.45 13.6106 10.0544 12.9167 10.8 12.9167ZM16.2 12.9167C16.9456 12.9167 17.55 13.6106 17.55 14.4667V22.2167C17.55 23.0727 16.9456 23.7667 16.2 23.7667C15.4544 23.7667 14.85 23.0727 14.85 22.2167V14.4667C14.85 13.6106 15.4544 12.9167 16.2 12.9167Z" fill="#e74345"/>
</svg>
